<mxfile host="65bd71144e">
    <diagram name="Page-1" id="gVIzxmkaYbDt7CBDV0SQ">
        <mxGraphModel dx="687" dy="447" grid="1" gridSize="10" guides="1" tooltips="1" connect="1" arrows="1" fold="1" page="1" pageScale="1" pageWidth="850" pageHeight="1100" math="0" shadow="0">
            <root>
                <mxCell id="0"/>
                <mxCell id="1" parent="0"/>
                <mxCell id="7mTq0A4v_XAOz74BESgN-4" style="edgeStyle=orthogonalEdgeStyle;rounded=0;orthogonalLoop=1;jettySize=auto;html=1;entryX=0.503;entryY=1.073;entryDx=0;entryDy=0;entryPerimeter=0;" parent="1" source="7mTq0A4v_XAOz74BESgN-1" target="7mTq0A4v_XAOz74BESgN-17" edge="1">
                    <mxGeometry relative="1" as="geometry"/>
                </mxCell>
                <mxCell id="7mTq0A4v_XAOz74BESgN-5" value="Get Device State" style="edgeLabel;html=1;align=center;verticalAlign=middle;resizable=0;points=[];" parent="7mTq0A4v_XAOz74BESgN-4" vertex="1" connectable="0">
                    <mxGeometry x="-0.0857" y="1" relative="1" as="geometry">
                        <mxPoint as="offset"/>
                    </mxGeometry>
                </mxCell>
                <mxCell id="7mTq0A4v_XAOz74BESgN-1" value="Pygame Connector" style="rounded=1;whiteSpace=wrap;html=1;fillColor=#d5e8d4;strokeColor=#82b366;" parent="1" vertex="1">
                    <mxGeometry x="340" y="550" width="120" height="60" as="geometry"/>
                </mxCell>
                <mxCell id="7mTq0A4v_XAOz74BESgN-7" style="edgeStyle=orthogonalEdgeStyle;rounded=0;orthogonalLoop=1;jettySize=auto;html=1;" parent="1" edge="1">
                    <mxGeometry relative="1" as="geometry">
                        <mxPoint x="340" y="359" as="sourcePoint"/>
                        <mxPoint x="400" y="290" as="targetPoint"/>
                        <Array as="points">
                            <mxPoint x="340" y="359"/>
                            <mxPoint x="340" y="320"/>
                            <mxPoint x="400" y="320"/>
                        </Array>
                    </mxGeometry>
                </mxCell>
                <mxCell id="7mTq0A4v_XAOz74BESgN-9" value="Axes State" style="edgeLabel;html=1;align=center;verticalAlign=middle;resizable=0;points=[];" parent="7mTq0A4v_XAOz74BESgN-7" vertex="1" connectable="0">
                    <mxGeometry x="-0.5652" y="-1" relative="1" as="geometry">
                        <mxPoint x="-1" y="7" as="offset"/>
                    </mxGeometry>
                </mxCell>
                <mxCell id="7mTq0A4v_XAOz74BESgN-2" value="Controller mapping layer" style="rounded=1;whiteSpace=wrap;html=1;fillColor=#d5e8d4;strokeColor=#82b366;" parent="1" vertex="1">
                    <mxGeometry x="280" y="360" width="240" height="60" as="geometry"/>
                </mxCell>
                <mxCell id="7mTq0A4v_XAOz74BESgN-8" style="edgeStyle=orthogonalEdgeStyle;rounded=0;orthogonalLoop=1;jettySize=auto;html=1;" parent="1" source="7mTq0A4v_XAOz74BESgN-2" target="7mTq0A4v_XAOz74BESgN-11" edge="1">
                    <mxGeometry relative="1" as="geometry">
                        <mxPoint x="400" y="300" as="targetPoint"/>
                        <Array as="points">
                            <mxPoint x="460" y="320"/>
                            <mxPoint x="400" y="320"/>
                        </Array>
                    </mxGeometry>
                </mxCell>
                <mxCell id="7mTq0A4v_XAOz74BESgN-10" value="Button Events" style="edgeLabel;html=1;align=center;verticalAlign=middle;resizable=0;points=[];" parent="7mTq0A4v_XAOz74BESgN-8" vertex="1" connectable="0">
                    <mxGeometry x="-0.5203" y="-1" relative="1" as="geometry">
                        <mxPoint x="-1" y="9" as="offset"/>
                    </mxGeometry>
                </mxCell>
                <mxCell id="3" style="edgeStyle=none;html=1;entryX=0.5;entryY=1;entryDx=0;entryDy=0;" parent="1" source="7mTq0A4v_XAOz74BESgN-11" target="2" edge="1">
                    <mxGeometry relative="1" as="geometry"/>
                </mxCell>
                <mxCell id="7mTq0A4v_XAOz74BESgN-11" value="Stateful Tello Controller" style="rounded=1;whiteSpace=wrap;html=1;fillColor=#f8cecc;strokeColor=#b85450;" parent="1" vertex="1">
                    <mxGeometry x="320" y="230" width="160" height="60" as="geometry"/>
                </mxCell>
                <mxCell id="7mTq0A4v_XAOz74BESgN-14" value="&lt;font style=&quot;font-size: 8px;&quot;&gt;Wrapper around the pygame connector For easy mocking during tests&lt;/font&gt;" style="ellipse;shape=cloud;whiteSpace=wrap;html=1;fontSize=8;spacingLeft=25;spacingBottom=0;spacingRight=25;" parent="1" vertex="1">
                    <mxGeometry x="550" y="540" width="120" height="80" as="geometry"/>
                </mxCell>
                <mxCell id="7mTq0A4v_XAOz74BESgN-15" value="Emits the pure state of the controller" style="ellipse;shape=cloud;whiteSpace=wrap;html=1;fontSize=7;spacingLeft=20;spacingRight=20;" parent="1" vertex="1">
                    <mxGeometry x="550" y="440" width="120" height="80" as="geometry"/>
                </mxCell>
                <mxCell id="7mTq0A4v_XAOz74BESgN-16" value="Keeps track of certain variable event state such as speed generates state and events to be pushed to the tello" style="ellipse;shape=cloud;whiteSpace=wrap;html=1;spacingLeft=40;spacingBottom=0;fontSize=7;spacingRight=40;" parent="1" vertex="1">
                    <mxGeometry x="530" y="205" width="160" height="110" as="geometry"/>
                </mxCell>
                <mxCell id="7mTq0A4v_XAOz74BESgN-18" style="edgeStyle=orthogonalEdgeStyle;rounded=0;orthogonalLoop=1;jettySize=auto;html=1;entryX=0.5;entryY=1;entryDx=0;entryDy=0;" parent="1" source="7mTq0A4v_XAOz74BESgN-17" target="7mTq0A4v_XAOz74BESgN-2" edge="1">
                    <mxGeometry relative="1" as="geometry"/>
                </mxCell>
                <mxCell id="7mTq0A4v_XAOz74BESgN-17" value="Pygame Controller Implementation" style="rounded=1;whiteSpace=wrap;html=1;fillColor=#d5e8d4;strokeColor=#82b366;" parent="1" vertex="1">
                    <mxGeometry x="280" y="450" width="240" height="60" as="geometry"/>
                </mxCell>
                <mxCell id="7mTq0A4v_XAOz74BESgN-19" value="Maps the pure xbox controller state to tello events and scales the speed and control values" style="ellipse;shape=cloud;whiteSpace=wrap;html=1;fontSize=7;spacingLeft=20;spacingRight=20;" parent="1" vertex="1">
                    <mxGeometry x="550" y="350" width="120" height="80" as="geometry"/>
                </mxCell>
                <mxCell id="2" value="Tello" style="ellipse;whiteSpace=wrap;html=1;fillColor=#e1d5e7;strokeColor=#9673a6;" parent="1" vertex="1">
                    <mxGeometry x="340" y="80" width="120" height="80" as="geometry"/>
                </mxCell>
            </root>
        </mxGraphModel>
    </diagram>
</mxfile>